<svg width="531" height="183" viewBox="0 0 531 183" fill="none" xmlns="http://www.w3.org/2000/svg">
<g clip-path="url(#clip0_1_24)">
<path d="M530.941 110.34C530.941 118.66 528.601 124.683 523.921 128.41C519.241 132.137 511.831 134 501.691 134H469.841V52.49H501.691C510.878 52.49 517.378 54.05 521.191 57.17C525.091 60.29 527.041 65.62 527.041 73.16C527.041 78.2733 526.261 82.1733 524.701 84.86C523.141 87.5467 520.281 89.4967 516.121 90.71C521.061 91.5767 524.744 93.6567 527.171 96.95C529.684 100.157 530.941 104.62 530.941 110.34ZM512.611 75.37C512.611 71.6433 511.788 69.0867 510.141 67.7C508.581 66.2267 505.764 65.49 501.691 65.49H485.441V86.55H501.691C505.591 86.55 508.364 85.6833 510.011 83.95C511.744 82.2167 512.611 79.3567 512.611 75.37ZM515.861 109.3C515.861 105.313 514.778 102.54 512.611 100.98C510.531 99.42 506.891 98.64 501.691 98.64H485.441V120.48H501.691C506.891 120.48 510.531 119.657 512.611 118.01C514.778 116.363 515.861 113.46 515.861 109.3Z" fill="#051646"/>
<path d="M417.514 134H391.384V52.49H417.514C425.834 52.49 432.421 53.1833 437.274 54.57C442.214 55.9567 446.157 58.1667 449.104 61.2C452.051 64.2333 454.174 68.35 455.474 73.55C456.861 78.6633 457.554 85.2067 457.554 93.18C457.554 107.307 454.391 117.663 448.064 124.25C441.737 130.75 431.554 134 417.514 134ZM437.144 72.51C435.497 70.3433 433.201 68.8267 430.254 67.96C427.307 67.0067 423.061 66.53 417.514 66.53H406.984V119.31H417.514C426.874 119.31 433.201 117.403 436.494 113.59C439.787 109.777 441.434 102.973 441.434 93.18C441.434 87.98 441.087 83.7333 440.394 80.44C439.701 77.1467 438.617 74.5033 437.144 72.51Z" fill="#051646"/>
<path d="M381.622 123.99V132.96C380.235 133.567 378.328 134.043 375.902 134.39C373.562 134.823 371.308 135.04 369.142 135.04C361.342 135.04 355.752 133.307 352.372 129.84C349.078 126.373 347.432 120.393 347.432 111.9V78.88H337.812V69.78H347.562L349.252 54.18H358.092V69.78H380.972V78.88H358.092V111.51C358.092 116.797 359.045 120.393 360.952 122.3C362.945 124.207 366.412 125.16 371.352 125.16C372.912 125.16 374.688 125.03 376.682 124.77C378.762 124.51 380.408 124.25 381.622 123.99Z" fill="#051646"/>
<path d="M283.361 134H272.701V69.78H281.931L282.451 76.02H282.841C286.308 73.42 289.904 71.5133 293.631 70.3C297.444 69.0867 301.691 68.48 306.371 68.48C313.478 68.48 318.851 70.2567 322.491 73.81C326.218 77.3633 328.081 82.6067 328.081 89.54V134H317.421V90.84C317.421 86.5067 316.208 83.3 313.781 81.22C311.354 79.14 307.628 78.1 302.601 78.1C299.481 78.1 296.274 78.62 292.981 79.66C289.774 80.6133 286.568 82.0433 283.361 83.95V134Z" fill="#051646"/>
<path d="M255.948 58.6H244.508V47.55H255.948V58.6ZM255.558 134H244.898V69.78H255.558V134Z" fill="#051646"/>
<path d="M234.28 123.6V134H184.36V52.49H195.41V123.6H234.28Z" fill="#051646"/>
<path d="M63 41L121.5 1.5L83.5 60.5L63 41Z" fill="#1449A7"/>
<path d="M83.5 60.5L63 41L58.5 44L55 42.5L61.5 66L83.5 60.5Z" fill="#092575"/>
<path d="M58.5 44L55 42.5L51.5 38.5L102.5 0L92.5 21L58.5 44Z" fill="#4375CD"/>
<path d="M55 42.5L61.5 66L66.5 86L9 88L0 78L47.5 35.5L51.5 38.5L55 42.5Z" fill="#1772E8"/>
<path d="M63 72L66.5 86L29 87L38.5 128L115.5 183V121L63 72Z" fill="#1772E8"/>
<path d="M9 88L0 78L7.5 88H9Z" fill="#092575"/>
<path d="M66.5 86L45.5 133L49 135.5L79 87L63 72L66.5 86Z" fill="#092575"/>
<path d="M120.5 140H115.5V163.5L120.5 158V140Z" fill="#092575"/>
<path d="M135.5 140L120.5 158V140H135.5Z" fill="#4375CD"/>
<path d="M66.5 86L32.5 102.5L29 87L66.5 86Z" fill="#092575"/>
<path d="M23 183H115.5L59.5 143L23 183Z" fill="#092575"/>
<path d="M50.5 162L77 183H31L50.5 162Z" fill="#1772E8"/>
<path d="M38.5 128L32.5 102.5L66.5 86L45.5 133L38.5 128Z" fill="#1449A7"/>
</g>
<defs>
<clipPath id="clip0_1_24">
<rect width="531" height="183" fill="white"/>
</clipPath>
</defs>
</svg>
